<svg width="64" height="58" viewBox="0 0 64 58" fill="none" xmlns="http://www.w3.org/2000/svg">
<path d="M21.9345 11C19.3759 11 16.9221 11.9307 15.1128 13.5872C13.3036 15.2438 12.2872 17.4906 12.2872 19.8333V22.0417C12.2872 22.6273 12.5413 23.189 12.9936 23.6032C13.4459 24.0173 14.0594 24.25 14.699 24.25C15.3387 24.25 15.9521 24.0173 16.4044 23.6032C16.8568 23.189 17.1109 22.6273 17.1109 22.0417V19.8333C17.1109 18.662 17.6191 17.5386 18.5237 16.7103C19.4283 15.882 20.6552 15.4167 21.9345 15.4167H24.3463C24.9859 15.4167 25.5994 15.184 26.0517 14.7699C26.504 14.3557 26.7581 13.794 26.7581 13.2083C26.7581 12.6226 26.504 12.0609 26.0517 11.6468C25.5994 11.2327 24.9859 11 24.3463 11H21.9345ZM38.8171 11C38.1775 11 37.564 11.2327 37.1117 11.6468C36.6594 12.0609 36.4053 12.6226 36.4053 13.2083C36.4053 13.794 36.6594 14.3557 37.1117 14.7699C37.564 15.184 38.1775 15.4167 38.8171 15.4167H41.229C42.5083 15.4167 43.7352 15.882 44.6398 16.7103C45.5444 17.5386 46.0526 18.662 46.0526 19.8333V22.0417C46.0526 22.6273 46.3067 23.189 46.759 23.6032C47.2113 24.0173 47.8247 24.25 48.4644 24.25C49.104 24.25 49.7175 24.0173 50.1698 23.6032C50.6221 23.189 50.8762 22.6273 50.8762 22.0417V19.8333C50.8762 17.4906 49.8598 15.2438 48.0506 13.5872C46.2414 11.9307 43.7876 11 41.229 11H38.8171ZM17.1109 35.2917C17.1109 34.706 16.8568 34.1443 16.4044 33.7301C15.9521 33.316 15.3387 33.0833 14.699 33.0833C14.0594 33.0833 13.4459 33.316 12.9936 33.7301C12.5413 34.1443 12.2872 34.706 12.2872 35.2917V37.5C12.2872 39.8427 13.3036 42.0895 15.1128 43.7461C16.9221 45.4027 19.3759 46.3333 21.9345 46.3333H24.3463C24.9859 46.3333 25.5994 46.1007 26.0517 45.6865C26.504 45.2724 26.7581 44.7107 26.7581 44.125C26.7581 43.5393 26.504 42.9776 26.0517 42.5635C25.5994 42.1493 24.9859 41.9166 24.3463 41.9166H21.9345C20.6552 41.9166 19.4283 41.4513 18.5237 40.623C17.6191 39.7948 17.1109 38.6714 17.1109 37.5V35.2917ZM50.8762 35.2917C50.8762 34.706 50.6221 34.1443 50.1698 33.7301C49.7175 33.316 49.104 33.0833 48.4644 33.0833C47.8247 33.0833 47.2113 33.316 46.759 33.7301C46.3067 34.1443 46.0526 34.706 46.0526 35.2917V37.5C46.0526 38.6714 45.5444 39.7948 44.6398 40.623C43.7352 41.4513 42.5083 41.9166 41.229 41.9166H38.8171C38.1775 41.9166 37.564 42.1493 37.1117 42.5635C36.6594 42.9776 36.4053 43.5393 36.4053 44.125C36.4053 44.7107 36.6594 45.2724 37.1117 45.6865C37.564 46.1007 38.1775 46.3333 38.8171 46.3333H41.229C43.7876 46.3333 46.2414 45.4027 48.0506 43.7461C49.8598 42.0895 50.8762 39.8427 50.8762 37.5V35.2917ZM24.3463 26.4583C23.7066 26.4583 23.0932 26.691 22.6409 27.1051C22.1886 27.5193 21.9345 28.081 21.9345 28.6667C21.9345 29.2523 22.1886 29.814 22.6409 30.2282C23.0932 30.6423 23.7066 30.875 24.3463 30.875H38.8171C39.4568 30.875 40.0702 30.6423 40.5225 30.2282C40.9748 29.814 41.229 29.2523 41.229 28.6667C41.229 28.081 40.9748 27.5193 40.5225 27.1051C40.0702 26.691 39.4568 26.4583 38.8171 26.4583H24.3463Z" fill="#8BEB23"/>
</svg>
