<svg width="66" height="66" viewBox="0 0 66 66" fill="none" xmlns="http://www.w3.org/2000/svg">
<path d="M33.5002 38.4333C36.2248 38.4333 38.4335 36.2246 38.4335 33.5C38.4335 30.7754 36.2248 28.5667 33.5002 28.5667C30.7756 28.5667 28.5668 30.7754 28.5668 33.5C28.5668 36.2246 30.7756 38.4333 33.5002 38.4333Z" fill="#252525"/>
<path d="M28.875 18.0833L26.0538 21.1667H21.1667C19.4709 21.1667 18.0834 22.5542 18.0834 24.25V42.75C18.0834 44.4458 19.4709 45.8333 21.1667 45.8333H45.8334C47.5292 45.8333 48.9167 44.4458 48.9167 42.75V24.25C48.9167 22.5542 47.5292 21.1667 45.8334 21.1667H40.9463L38.125 18.0833H28.875ZM33.5 41.2083C29.245 41.2083 25.7917 37.755 25.7917 33.5C25.7917 29.245 29.245 25.7917 33.5 25.7917C37.755 25.7917 41.2084 29.245 41.2084 33.5C41.2084 37.755 37.755 41.2083 33.5 41.2083Z" fill="#252525"/>
<rect x="0.5" y="0.5" width="65" height="65" rx="10.5" stroke="#BDBDBD" stroke-dasharray="2 2"/>
</svg>
