<svg width="201" height="200" viewBox="0 0 201 200" fill="none" xmlns="http://www.w3.org/2000/svg">
<circle cx="100.959" cy="100" r="100" fill="white"/>
<path fill-rule="evenodd" clip-rule="evenodd" d="M79.0725 35.4436C76.7016 36.3878 75.9922 37.9823 75.9922 42.3655L76.0415 44.8485H101.614H127.187L127.137 42.3655C127.137 37.9823 126.428 36.3878 124.057 35.4436C122.572 34.8521 80.5575 34.8521 79.0725 35.4436ZM76.0424 50.7576C76.1244 58.0016 75.8796 56.084 76.5904 57.6938C76.9837 58.5844 81.8705 65.048 81.8705 65.048C81.8705 65.048 85.8099 70.7935 87.5921 74.0337V122.31L87.7239 161.467L88.3303 162.556C88.664 163.155 89.3759 163.95 89.9121 164.323L90.8875 165H101.584H112.28L113.374 164.192C115.585 162.558 115.389 166.352 115.537 122.31L115.753 74.0337L116.436 72.4083C116.839 71.4482 118.874 68.4355 121.407 65.048C123.826 61.8147 126 58.6068 126.393 57.6938C127.079 56.0978 127.09 55.9695 127.172 48.7879H101.566H75.9595L76.0424 50.7576ZM105.593 88.1587C107.38 89.1438 109.277 91.2912 110.086 93.2467C110.632 94.5669 110.66 95.0347 110.66 102.732V110.828L109.756 112.691C107.763 116.796 103.87 118.919 99.9236 118.052C96.9166 117.391 94.8241 115.678 93.3736 112.691L92.4693 110.828V102.732C92.4693 95.0827 92.5005 94.5604 93.0327 93.2747C93.6409 91.8059 95.1252 89.8224 96.3374 88.8585C98.7876 86.9101 102.779 86.6083 105.593 88.1587ZM99.3004 103.289C97.4357 104.558 96.5965 106.783 97.1149 109.082C97.8799 112.474 101.379 113.996 104.108 112.123C105.124 111.426 105.649 110.565 106.035 108.962C106.558 106.795 105.506 104.231 103.656 103.163C102.586 102.545 100.295 102.611 99.3004 103.289Z" fill="#007CFF"/>
</svg>
