<svg width="200" height="200" viewBox="0 0 200 200" fill="none" xmlns="http://www.w3.org/2000/svg">
<circle cx="100" cy="100" r="100" fill="#8F8F8F"/>
<path fill-rule="evenodd" clip-rule="evenodd" d="M78.113 35.4436C75.7421 36.3878 75.0327 37.9823 75.0327 42.3655L75.082 44.8485H100.655H126.227L126.178 42.3655C126.178 37.9823 125.468 36.3878 123.098 35.4436C121.612 34.8521 79.5981 34.8521 78.113 35.4436ZM75.083 50.7576C75.1649 58.0016 74.9202 56.084 75.6309 57.6938C76.0243 58.5844 80.911 65.048 80.911 65.048C80.911 65.048 84.8504 70.7935 86.6326 74.0337V122.31L86.7644 161.467L87.3708 162.556C87.7046 163.155 88.4164 163.95 88.9526 164.323L89.9281 165H100.625H111.321L112.415 164.192C114.626 162.558 114.43 166.352 114.578 122.31L114.793 74.0337L115.476 72.4083C115.879 71.4482 117.914 68.4355 120.448 65.048C122.866 61.8147 125.041 58.6068 125.433 57.6938C126.12 56.0978 126.131 55.9695 126.212 48.7879H100.606H75L75.083 50.7576ZM104.633 88.1587C106.421 89.1438 108.317 91.2912 109.126 93.2467C109.672 94.5669 109.701 95.0347 109.701 102.732V110.828L108.796 112.691C106.803 116.796 102.911 118.919 98.9641 118.052C95.9571 117.391 93.8647 115.678 92.4141 112.691L91.5099 110.828V102.732C91.5099 95.0827 91.541 94.5604 92.0733 93.2747C92.6815 91.8059 94.1657 89.8224 95.3779 88.8585C97.8281 86.9101 101.819 86.6083 104.633 88.1587ZM98.3409 103.289C96.4762 104.558 95.6371 106.783 96.1554 109.082C96.9205 112.474 100.419 113.996 103.149 112.123C104.164 111.426 104.689 110.565 105.076 108.962C105.598 106.795 104.546 104.231 102.696 103.163C101.626 102.545 99.3356 102.611 98.3409 103.289Z" fill="white"/>
</svg>
