<svg width="25" height="21" viewBox="0 0 25 21" fill="none" xmlns="http://www.w3.org/2000/svg">
<path d="M4.34359 0.833313H20.6561C21.6592 0.833247 22.6243 1.21702 23.3534 1.90592C24.0825 2.59481 24.5203 3.53659 24.5771 4.53806L24.5832 4.7604V16.2396C24.5832 17.2426 24.1995 18.2077 23.5106 18.9368C22.8217 19.666 21.8799 20.1038 20.8784 20.1606L20.6561 20.1666H4.34359C3.3405 20.1667 2.37542 19.7829 1.64631 19.094C0.917197 18.4052 0.479336 17.4634 0.422546 16.4619L0.416504 16.2396V4.7604C0.416438 3.75731 0.800215 2.79223 1.48911 2.06312C2.178 1.33401 3.11978 0.896145 4.12125 0.839355L4.34359 0.833313H20.6561H4.34359ZM22.7707 7.32569L12.9228 12.5094C12.8116 12.5682 12.6893 12.6031 12.5639 12.6121C12.4385 12.621 12.3125 12.6038 12.1941 12.5614L12.0781 12.5106L2.229 7.3269V16.2396C2.22902 16.7703 2.42859 17.2815 2.78808 17.6719C3.14757 18.0623 3.6407 18.3032 4.16959 18.3469L4.34359 18.3541H20.6561C21.187 18.3541 21.6984 18.1544 22.0888 17.7946C22.4792 17.4349 22.72 16.9415 22.7634 16.4124L22.7707 16.2396V7.32569ZM20.6561 2.64581H4.34359C3.8129 2.64583 3.30162 2.84539 2.91124 3.20488C2.52086 3.56437 2.27992 4.05751 2.23625 4.5864L2.229 4.7604V5.27877L12.4998 10.6836L22.7707 5.27756V4.7604C22.7706 4.22952 22.5709 3.71808 22.2112 3.32767C21.8514 2.93726 21.358 2.69644 20.8289 2.65306L20.6561 2.64581Z" fill="black"/>
</svg>
