<svg width="59" height="94" viewBox="0 0 59 94" fill="none" xmlns="http://www.w3.org/2000/svg">
<path d="M14.6789 2.09092C14.8564 1.48711 15.2247 0.95704 15.7287 0.580099C16.2327 0.203158 16.8452 -0.000368016 17.4746 4.99559e-07H40.7718C41.2329 0.000350585 41.6875 0.110231 42.0979 0.320595C42.5083 0.530959 42.8629 0.835791 43.1324 1.21C43.402 1.5842 43.5788 2.01708 43.6484 2.473C43.7179 2.92891 43.6782 3.39483 43.5325 3.83238L33.1652 34.9458H55.3325C55.8778 34.9454 56.4123 35.0981 56.8751 35.3866C57.3379 35.6752 57.7104 36.0878 57.9501 36.5776C58.1899 37.0675 58.2873 37.6148 58.2312 38.1572C58.1752 38.6997 57.9679 39.2155 57.6331 39.646L16.863 92.0646C16.4454 92.6042 15.8515 92.98 15.1851 93.1264C14.5186 93.2728 13.8219 93.1805 13.2165 92.8657C12.6112 92.5509 12.1356 92.0335 11.8727 91.4038C11.6099 90.7741 11.5765 90.0721 11.7784 89.4204L22.268 55.3308H2.91385C2.4611 55.331 2.01452 55.2257 1.60958 55.0232C1.20464 54.8207 0.852501 54.5266 0.581121 54.1642C0.30974 53.8018 0.126598 53.3811 0.0462384 52.9355C-0.0341214 52.4899 -0.00948535 52.0318 0.118191 51.5974L14.6789 2.09092Z" fill="#8BEB23"/>
</svg>
