<svg width="24" height="24" viewBox="0 0 24 24" fill="none" xmlns="http://www.w3.org/2000/svg">
<path d="M17.29 5.70998C17.1975 5.61728 17.0876 5.54373 16.9666 5.49355C16.8456 5.44337 16.716 5.41754 16.585 5.41754C16.454 5.41754 16.3243 5.44337 16.2034 5.49355C16.0824 5.54373 15.9725 5.61728 15.88 5.70998L12 9.57998L8.10999 5.69998C8.01741 5.6074 7.9075 5.53396 7.78654 5.48385C7.66557 5.43375 7.53593 5.40796 7.40499 5.40796C7.27406 5.40796 7.14442 5.43375 7.02345 5.48385C6.90249 5.53396 6.79258 5.6074 6.69999 5.69998C6.60741 5.79256 6.53397 5.90247 6.48387 6.02344C6.43376 6.1444 6.40797 6.27405 6.40797 6.40498C6.40797 6.53591 6.43376 6.66556 6.48387 6.78652C6.53397 6.90749 6.60741 7.0174 6.69999 7.10998L11.29 11.7C11.68 12.09 12.31 12.09 12.7 11.7L17.29 7.10998C17.3826 7.01846 17.4562 6.90946 17.5064 6.78929C17.5566 6.66913 17.5824 6.5402 17.5824 6.40998C17.5824 6.27975 17.5566 6.15082 17.5064 6.03066C17.4562 5.9105 17.3826 5.8015 17.29 5.70998Z" fill="#646464"/>
<path d="M17.29 12.3001C17.1975 12.2074 17.0876 12.1338 16.9666 12.0836C16.8457 12.0335 16.716 12.0076 16.585 12.0076C16.454 12.0076 16.3244 12.0335 16.2034 12.0836C16.0824 12.1338 15.9725 12.2074 15.88 12.3001L12 16.1701L8.12 12.2901C7.93303 12.1031 7.67943 11.998 7.415 11.998C7.15058 11.998 6.89698 12.1031 6.71 12.2901C6.52303 12.477 6.41798 12.7306 6.41798 12.9951C6.41798 13.2595 6.52303 13.5131 6.71 13.7001L11.3 18.2901C11.69 18.6801 12.32 18.6801 12.71 18.2901L17.3 13.7001C17.4836 13.5127 17.5856 13.2603 17.5837 12.998C17.5818 12.7357 17.4762 12.4848 17.29 12.3001Z" fill="#646464"/>
</svg>
