<svg width="52" height="52" viewBox="0 0 52 52" fill="none" xmlns="http://www.w3.org/2000/svg">
<path d="M34.8053 18.0168C34.8053 17.7934 34.6225 17.6106 34.399 17.6106L31.0475 17.6258L25.9998 23.6434L20.9572 17.6309L17.6006 17.6157C17.3771 17.6157 17.1943 17.7934 17.1943 18.0219C17.1943 18.1184 17.2299 18.2098 17.2908 18.286L23.8975 26.1571L17.2908 34.0231C17.2295 34.0975 17.1954 34.1907 17.1943 34.2872C17.1943 34.5106 17.3771 34.6934 17.6006 34.6934L20.9572 34.6782L25.9998 28.6606L31.0424 34.6731L34.3939 34.6883C34.6174 34.6883 34.8002 34.5106 34.8002 34.2821C34.8002 34.1856 34.7646 34.0942 34.7037 34.018L28.1072 26.152L34.7139 18.2809C34.7748 18.2098 34.8053 18.1133 34.8053 18.0168Z" fill="#353535"/>
<path d="M26 3.30078C13.4367 3.30078 3.25 13.4875 3.25 26.0508C3.25 38.6141 13.4367 48.8008 26 48.8008C38.5633 48.8008 48.75 38.6141 48.75 26.0508C48.75 13.4875 38.5633 3.30078 26 3.30078ZM26 44.9414C15.5695 44.9414 7.10938 36.4813 7.10938 26.0508C7.10938 15.6203 15.5695 7.16016 26 7.16016C36.4305 7.16016 44.8906 15.6203 44.8906 26.0508C44.8906 36.4813 36.4305 44.9414 26 44.9414Z" fill="#353535"/>
</svg>
