<svg width="13" height="20" viewBox="0 0 13 20" fill="none" xmlns="http://www.w3.org/2000/svg">
<path opacity="0.8" d="M11.5556 0H1.44444C1.06135 0 0.693954 0.15051 0.423068 0.418419C0.152182 0.686328 0 1.04969 0 1.42857V18.5714C0 18.9503 0.152182 19.3137 0.423068 19.5816C0.693954 19.8495 1.06135 20 1.44444 20H11.5556C11.9386 20 12.306 19.8495 12.5769 19.5816C12.8478 19.3137 13 18.9503 13 18.5714V1.42857C13 1.04969 12.8478 0.686328 12.5769 0.418419C12.306 0.15051 11.9386 0 11.5556 0ZM1.44444 1.42857H11.5556V14.2857H1.44444V1.42857ZM1.44444 18.5714V15.7143H11.5556V18.5714H1.44444Z" fill="black"/>
</svg>
