<svg width="60" height="94" viewBox="0 0 60 94" fill="none" xmlns="http://www.w3.org/2000/svg">
<path d="M15.5847 2.09092C15.7622 1.48711 16.1305 0.95704 16.6345 0.580099C17.1385 0.203158 17.751 -0.000368016 18.3803 4.99559e-07H41.6775C42.1387 0.000350585 42.5932 0.110231 43.0036 0.320595C43.4141 0.530959 43.7686 0.835791 44.0382 1.21C44.3078 1.5842 44.4846 2.01708 44.5542 2.473C44.6237 2.92891 44.584 3.39483 44.4382 3.83238L34.071 34.9458H56.2383C56.7836 34.9454 57.3181 35.0981 57.7809 35.3866C58.2437 35.6752 58.6162 36.0878 58.8559 36.5776C59.0957 37.0675 59.1931 37.6148 59.137 38.1572C59.0809 38.6997 58.8737 39.2155 58.5388 39.646L17.7688 92.0646C17.3511 92.6042 16.7573 92.98 16.0908 93.1264C15.4244 93.2728 14.7277 93.1805 14.1223 92.8657C13.5169 92.5509 13.0413 92.0335 12.7785 91.4038C12.5157 90.7741 12.4823 90.0721 12.6842 89.4204L23.1737 55.3308H3.81961C3.36686 55.331 2.92028 55.2257 2.51534 55.0232C2.1104 54.8207 1.75826 54.5266 1.48688 54.1642C1.2155 53.8018 1.03236 53.3811 0.952 52.9355C0.87164 52.4899 0.896276 52.0318 1.02395 51.5974L15.5847 2.09092Z" fill="#7ECFE7"/>
</svg>
