<svg width="18" height="16" viewBox="0 0 18 16" fill="none" xmlns="http://www.w3.org/2000/svg">
<path d="M10.503 6.3333C10.4317 6.33282 10.3631 6.36056 10.3122 6.41047C10.2613 6.46038 10.2321 6.5284 10.2312 6.5997V8.5905C10.2321 8.66195 10.2614 8.73011 10.3125 8.78005C10.3636 8.82999 10.4324 8.85762 10.5039 8.8569H16.5006C16.5721 8.85762 16.6409 8.82999 16.692 8.78005C16.7431 8.73011 16.7724 8.66195 16.7733 8.5905V6.5997C16.7724 6.52825 16.7431 6.46008 16.692 6.41015C16.6409 6.36021 16.5721 6.33258 16.5006 6.3333H10.5039H10.503ZM14.1804 0.000900042C15.0102 0.0405 15.6069 0.2043 15.9849 0.5517C16.3584 0.8955 16.5501 1.3932 16.5879 2.052V3.9393C16.586 4.10003 16.5204 4.25343 16.4055 4.36581C16.2906 4.4782 16.1357 4.54038 15.975 4.5387C15.8953 4.53965 15.8163 4.5249 15.7423 4.49529C15.6683 4.46568 15.6009 4.42179 15.5439 4.36613C15.4869 4.31047 15.4415 4.24413 15.4101 4.17089C15.3788 4.09766 15.3621 4.01896 15.3612 3.9393L15.3621 2.0862C15.3423 1.7442 15.2604 1.5318 15.1434 1.4238C15.03 1.3194 14.6844 1.2258 14.1507 1.1988H2.3823C1.899 1.2168 1.5849 1.3086 1.4328 1.4391C1.3158 1.539 1.2276 1.8144 1.2267 2.2905L1.224 12.8835C1.269 13.3461 1.3707 13.6548 1.5012 13.8087C1.6002 13.9257 1.9071 14.0427 2.3589 14.1003H14.1633C14.7159 14.1111 15.0417 14.0283 15.1515 13.9176C15.273 13.7943 15.3612 13.4703 15.3612 12.9402V11.0997C15.3612 10.7694 15.6357 10.5003 15.975 10.5003C16.3134 10.5003 16.5879 10.7694 16.5879 11.0997V12.9402C16.5879 13.7502 16.4223 14.3559 16.0344 14.7492C15.6348 15.1542 14.9994 15.3162 14.1507 15.2982L2.286 15.2955C1.4787 15.2019 0.9 14.9805 0.5553 14.5728C0.243 14.2038 0.0693 13.6773 0 12.9411V2.2896C0.0018 1.5012 0.1908 0.9081 0.6246 0.5373C1.0224 0.1953 1.5966 0.0288 2.3589 0H14.1804V0.000900042ZM16.5006 5.1345C17.3286 5.1345 18 5.7906 18 6.5997V8.5905C18 9.3996 17.3286 10.0557 16.5006 10.0557H10.5039C9.6759 10.0557 9.0045 9.3987 9.0045 8.5905V6.5997C9.0045 5.7906 9.6759 5.1345 10.5039 5.1345H16.5006ZM12.0033 6.8805C11.5893 6.8805 11.2536 7.2045 11.2536 7.6032C11.2536 8.0028 11.5893 8.3259 12.0033 8.3259C12.4173 8.3259 12.753 8.0019 12.753 7.6032C12.753 7.2036 12.4173 6.8796 12.0033 6.8796V6.8805Z" fill="#8BEB23"/>
</svg>
