<svg width="21" height="21" viewBox="0 0 21 21" fill="none" xmlns="http://www.w3.org/2000/svg">
<g clip-path="url(#clip0_512_24)">
<path d="M13.4787 -2.81057e-05C13.3171 0.00643343 13.1612 0.0355104 12.9989 0.075895L2.01913 2.75097C0.72036 3.0692 -0.0921785 4.37928 0.22686 5.67886L1.76632 11.9643C1.85961 12.3387 2.04125 12.6853 2.29602 12.9751C2.5508 13.2648 2.87129 13.4893 3.23067 13.6298V12.1154C3.23067 9.88855 5.04232 8.07689 7.26913 8.07689H17.4412L15.9268 1.84232C15.7928 1.30037 15.4761 0.821193 15.03 0.485582C14.5839 0.149972 14.0357 -0.0215389 13.4779 -2.81057e-05H13.4787ZM14.4624 3.48355L15.1191 6.23455L12.3931 6.8904L11.7114 4.16443L14.4624 3.48355ZM7.26913 9.69228C5.93159 9.69228 4.84605 10.7778 4.84605 12.1154V18.5769C4.84605 19.9144 5.93159 21 7.26913 21H18.5768C19.9144 21 20.9999 19.9144 20.9999 18.5769V12.1154C20.9999 10.7778 19.9144 9.69228 18.5768 9.69228H7.26913ZM7.26913 10.9797H18.5768C19.1996 10.9797 19.7124 11.4926 19.7124 12.1154V12.923H6.13351V12.1154C6.13351 11.4926 6.6464 10.9797 7.26913 10.9797ZM6.13351 15.3461H19.7124V18.5769C19.7124 19.1996 19.1996 19.7125 18.5768 19.7125H7.26913C6.96847 19.7108 6.6806 19.5906 6.468 19.378C6.2554 19.1654 6.13521 18.8776 6.13351 18.5769V15.3461Z" fill="#8BEB23"/>
</g>
<defs>
<clipPath id="clip0_512_24">
<rect width="21" height="21" fill="white"/>
</clipPath>
</defs>
</svg>
