<?xml version="1.0" standalone="no"?><!DOCTYPE svg PUBLIC "-//W3C//DTD SVG 1.1//EN" "http://www.w3.org/Graphics/SVG/1.1/DTD/svg11.dtd"><svg t="1640309524604" class="icon" viewBox="0 0 1024 1024" version="1.1" xmlns="http://www.w3.org/2000/svg" p-id="3221" data-spm-anchor-id="a313x.7781069.0.i1" xmlns:xlink="http://www.w3.org/1999/xlink" width="200" height="200"><defs><style type="text/css"></style></defs><path d="M636.013714 556.580571c9.728 0 102.838857 48.566857 106.861715 55.442286 1.133714 2.852571 1.133714 6.290286 1.133714 8.557714 0 14.299429-4.571429 30.281143-9.728 43.446858-13.129143 32-66.304 52.553143-98.852572 52.553142-27.428571 0-84.004571-23.990857-108.580571-35.437714-81.700571-37.156571-132.571429-100.571429-181.723429-173.129143-21.723429-32-41.142857-71.424-40.557714-110.848v-4.571428c1.133714-37.705143 14.848-64.585143 42.276572-90.294857 8.557714-8.009143 17.700571-12.580571 29.696-12.580572 6.838857 0 13.714286 1.718857 21.138285 1.718857 15.433143 0 18.285714 4.571429 23.990857 19.419429 3.986286 9.728 33.133714 87.442286 33.133715 93.147428 0 21.723429-39.424 46.299429-39.424 59.428572 0 2.852571 1.133714 5.705143 2.852571 8.557714 12.580571 26.843429 36.571429 57.709714 58.294857 78.299429 26.294857 25.161143 54.272 41.728 86.272 57.709714a24.905143 24.905143 0 0 0 12.580572 3.986286c17.152 0 45.714286-55.442286 60.562285-55.442286zM520.009143 859.428571c197.705143 0 358.838857-161.133714 358.838857-358.838857s-161.133714-358.838857-358.838857-358.838857-358.838857 161.133714-358.838857 358.838857c0 75.446857 23.990857 149.138286 68.571428 210.285715l-45.129143 133.156571 138.276572-43.995429a361.142857 361.142857 0 0 0 197.156571 59.428572z m0-789.723428C757.723429 69.705143 950.857143 262.838857 950.857143 500.553143s-193.133714 430.848-430.848 430.848c-72.557714 0-144.566857-18.285714-208.566857-53.723429L73.142857 954.258286l77.714286-231.424a428.909714 428.909714 0 0 1-61.696-222.281143c0-237.714286 193.133714-430.848 430.848-430.848z" fill="#9aff8e" p-id="3222" data-spm-anchor-id="a313x.7781069.0.i0" class=""></path></svg>