<svg width="138" height="47" viewBox="0 0 138 47" fill="none" xmlns="http://www.w3.org/2000/svg">
<path d="M14.0766 34.672C12.4246 34.672 10.8846 34.448 9.45663 34C8.05663 33.524 6.82463 32.824 5.76063 31.9C4.72463 30.976 3.89863 29.814 3.28263 28.414C2.69463 27.014 2.40063 25.376 2.40063 23.5C2.40063 21.652 2.69463 20.07 3.28263 18.754C3.89863 17.41 4.69663 16.318 5.67663 15.478C6.65663 14.61 7.77663 13.98 9.03663 13.588C10.2966 13.168 11.5846 12.958 12.9006 12.958C14.3846 12.958 15.7286 13.182 16.9326 13.63C18.1646 14.078 19.2146 14.694 20.0826 15.478C20.9786 16.262 21.6646 17.2 22.1406 18.292C22.6446 19.384 22.8966 20.574 22.8966 21.862C22.8966 22.814 22.6306 23.542 22.0986 24.046C21.5666 24.55 20.8246 24.872 19.8726 25.012L9.49863 26.566C9.80663 27.49 10.4366 28.19 11.3886 28.666C12.3406 29.114 13.4326 29.338 14.6646 29.338C15.8126 29.338 16.8906 29.198 17.8986 28.918C18.9346 28.61 19.7746 28.26 20.4186 27.868C20.8666 28.148 21.2446 28.54 21.5526 29.044C21.8606 29.548 22.0146 30.08 22.0146 30.64C22.0146 31.9 21.4266 32.838 20.2506 33.454C19.3546 33.93 18.3466 34.252 17.2266 34.42C16.1066 34.588 15.0566 34.672 14.0766 34.672ZM12.9006 18.166C12.2286 18.166 11.6406 18.278 11.1366 18.502C10.6606 18.726 10.2686 19.02 9.96063 19.384C9.65263 19.72 9.41463 20.112 9.24663 20.56C9.10663 20.98 9.02263 21.414 8.99463 21.862L16.1766 20.686C16.0926 20.126 15.7846 19.566 15.2526 19.006C14.7206 18.446 13.9366 18.166 12.9006 18.166ZM39.2694 21.064C39.2694 20.196 39.0174 19.566 38.5134 19.174C38.0374 18.754 37.3794 18.544 36.5394 18.544C35.9794 18.544 35.4194 18.614 34.8594 18.754C34.3274 18.894 33.8654 19.104 33.4734 19.384V33.958C33.1934 34.042 32.7454 34.126 32.1294 34.21C31.5414 34.294 30.9254 34.336 30.2814 34.336C29.6654 34.336 29.1054 34.294 28.6014 34.21C28.1254 34.126 27.7194 33.958 27.3834 33.706C27.0474 33.454 26.7814 33.118 26.5854 32.698C26.4174 32.25 26.3334 31.676 26.3334 30.976V18.376C26.3334 17.62 26.4874 17.004 26.7954 16.528C27.1314 16.052 27.5794 15.618 28.1394 15.226C29.0914 14.554 30.2814 14.008 31.7094 13.588C33.1654 13.168 34.7754 12.958 36.5394 12.958C39.7034 12.958 42.1394 13.658 43.8474 15.058C45.5554 16.43 46.4094 18.348 46.4094 20.812V33.958C46.1294 34.042 45.6814 34.126 45.0654 34.21C44.4774 34.294 43.8614 34.336 43.2174 34.336C42.6014 34.336 42.0414 34.294 41.5374 34.21C41.0614 34.126 40.6554 33.958 40.3194 33.706C39.9834 33.454 39.7174 33.118 39.5214 32.698C39.3534 32.25 39.2694 31.676 39.2694 30.976V21.064ZM61.6137 34.672C59.9617 34.672 58.4217 34.448 56.9937 34C55.5937 33.524 54.3617 32.824 53.2977 31.9C52.2617 30.976 51.4357 29.814 50.8197 28.414C50.2317 27.014 49.9377 25.376 49.9377 23.5C49.9377 21.652 50.2317 20.07 50.8197 18.754C51.4357 17.41 52.2337 16.318 53.2137 15.478C54.1937 14.61 55.3137 13.98 56.5737 13.588C57.8337 13.168 59.1217 12.958 60.4377 12.958C61.9217 12.958 63.2657 13.182 64.4697 13.63C65.7017 14.078 66.7517 14.694 67.6197 15.478C68.5157 16.262 69.2017 17.2 69.6777 18.292C70.1817 19.384 70.4337 20.574 70.4337 21.862C70.4337 22.814 70.1677 23.542 69.6357 24.046C69.1037 24.55 68.3617 24.872 67.4097 25.012L57.0357 26.566C57.3437 27.49 57.9737 28.19 58.9257 28.666C59.8777 29.114 60.9697 29.338 62.2017 29.338C63.3497 29.338 64.4277 29.198 65.4357 28.918C66.4717 28.61 67.3117 28.26 67.9557 27.868C68.4037 28.148 68.7817 28.54 69.0897 29.044C69.3977 29.548 69.5517 30.08 69.5517 30.64C69.5517 31.9 68.9637 32.838 67.7877 33.454C66.8917 33.93 65.8837 34.252 64.7637 34.42C63.6437 34.588 62.5937 34.672 61.6137 34.672ZM60.4377 18.166C59.7657 18.166 59.1777 18.278 58.6737 18.502C58.1977 18.726 57.8057 19.02 57.4977 19.384C57.1897 19.72 56.9517 20.112 56.7837 20.56C56.6437 20.98 56.5597 21.414 56.5317 21.862L63.7137 20.686C63.6297 20.126 63.3217 19.566 62.7897 19.006C62.2577 18.446 61.4737 18.166 60.4377 18.166ZM81.0105 33.958C80.7305 34.042 80.2825 34.126 79.6665 34.21C79.0785 34.294 78.4625 34.336 77.8185 34.336C77.2025 34.336 76.6425 34.294 76.1385 34.21C75.6625 34.126 75.2565 33.958 74.9205 33.706C74.5845 33.454 74.3185 33.118 74.1225 32.698C73.9545 32.25 73.8705 31.676 73.8705 30.976V18.376C73.8705 17.732 73.9825 17.186 74.2065 16.738C74.4585 16.262 74.8085 15.842 75.2565 15.478C75.7045 15.114 76.2505 14.792 76.8945 14.512C77.5665 14.204 78.2805 13.938 79.0365 13.714C79.7925 13.49 80.5765 13.322 81.3885 13.21C82.2005 13.07 83.0125 13 83.8245 13C85.1685 13 86.2325 13.266 87.0165 13.798C87.8005 14.302 88.1925 15.142 88.1925 16.318C88.1925 16.71 88.1365 17.102 88.0245 17.494C87.9125 17.858 87.7725 18.194 87.6045 18.502C87.0165 18.502 86.4145 18.53 85.7985 18.586C85.1825 18.642 84.5805 18.726 83.9925 18.838C83.4045 18.95 82.8445 19.076 82.3125 19.216C81.8085 19.328 81.3745 19.468 81.0105 19.636V33.958ZM100.6 12.958C102.196 12.958 103.638 13.168 104.926 13.588C106.242 13.98 107.348 14.498 108.244 15.142C108.804 15.534 109.238 15.968 109.546 16.444C109.882 16.92 110.05 17.536 110.05 18.292V32.992C110.05 34.476 109.77 35.75 109.21 36.814C108.65 37.906 107.88 38.802 106.9 39.502C105.948 40.23 104.814 40.762 103.498 41.098C102.21 41.434 100.824 41.602 99.3399 41.602C96.7919 41.602 94.7899 41.252 93.3339 40.552C91.8779 39.88 91.1499 38.774 91.1499 37.234C91.1499 36.59 91.2759 36.016 91.5279 35.512C91.8079 35.036 92.1159 34.672 92.4519 34.42C93.2639 34.868 94.1739 35.246 95.1819 35.554C96.2179 35.862 97.2819 36.016 98.3739 36.016C99.8859 36.016 101.09 35.764 101.986 35.26C102.882 34.756 103.33 33.944 103.33 32.824V32.152C102.182 32.656 100.782 32.908 99.1299 32.908C97.8699 32.908 96.6659 32.726 95.5179 32.362C94.3979 31.97 93.4039 31.382 92.5359 30.598C91.6959 29.786 91.0099 28.75 90.4779 27.49C89.9739 26.23 89.7219 24.732 89.7219 22.996C89.7219 21.288 89.9879 19.804 90.5199 18.544C91.0799 17.284 91.8359 16.248 92.7879 15.436C93.7679 14.596 94.9159 13.98 96.2319 13.588C97.5759 13.168 99.0319 12.958 100.6 12.958ZM103.204 19.048C103.008 18.936 102.714 18.824 102.322 18.712C101.958 18.6 101.496 18.544 100.936 18.544C99.5639 18.544 98.5279 18.936 97.8279 19.72C97.1559 20.476 96.8199 21.568 96.8199 22.996C96.8199 24.62 97.1559 25.796 97.8279 26.524C98.5279 27.224 99.4099 27.574 100.474 27.574C101.622 27.574 102.532 27.308 103.204 26.776V19.048ZM135.602 23.794C135.602 25.53 135.336 27.084 134.804 28.456C134.272 29.8 133.516 30.934 132.536 31.858C131.584 32.782 130.436 33.482 129.092 33.958C127.748 34.434 126.25 34.672 124.598 34.672C122.946 34.672 121.448 34.42 120.104 33.916C118.76 33.412 117.598 32.698 116.618 31.774C115.666 30.822 114.924 29.674 114.392 28.33C113.86 26.986 113.594 25.474 113.594 23.794C113.594 22.142 113.86 20.644 114.392 19.3C114.924 17.956 115.666 16.822 116.618 15.898C117.598 14.946 118.76 14.218 120.104 13.714C121.448 13.21 122.946 12.958 124.598 12.958C126.25 12.958 127.748 13.224 129.092 13.756C130.436 14.26 131.584 14.988 132.536 15.94C133.516 16.864 134.272 17.998 134.804 19.342C135.336 20.686 135.602 22.17 135.602 23.794ZM120.902 23.794C120.902 25.502 121.224 26.818 121.868 27.742C122.54 28.638 123.464 29.086 124.64 29.086C125.816 29.086 126.712 28.624 127.328 27.7C127.972 26.776 128.294 25.474 128.294 23.794C128.294 22.114 127.972 20.826 127.328 19.93C126.684 19.006 125.774 18.544 124.598 18.544C123.422 18.544 122.512 19.006 121.868 19.93C121.224 20.826 120.902 22.114 120.902 23.794Z" fill="#00CE7B"/>
</svg>
