g<svg width="100" height="99" viewBox="0 0 100 99" fill="none" xmlns="http://www.w3.org/2000/svg">
<path d="M63.5054 50.8833C66.6324 47.5252 68.394 43.1211 68.4456 38.5328C68.4456 33.5801 66.4781 28.8303 62.9761 25.3283C59.474 21.8262 54.7242 19.8588 49.7716 19.8588C44.8189 19.8588 40.0691 21.8262 36.567 25.3283C33.065 28.8303 31.0975 33.5801 31.0975 38.5328C31.1491 43.1211 32.9107 47.5252 36.0378 50.8833C31.6837 53.0514 27.9369 56.2678 25.1343 60.2432C22.3317 64.2186 20.5612 68.8283 19.9821 73.6577C19.8379 74.9679 20.2202 76.2818 21.0448 77.3102C21.8693 78.3385 23.0686 78.9972 24.3788 79.1414C25.6891 79.2855 27.0029 78.9032 28.0313 78.0787C29.0597 77.2541 29.7184 76.0548 29.8625 74.7446C30.452 69.9582 32.7715 65.5526 36.384 62.3577C39.9965 59.1629 44.6526 57.3994 49.4751 57.3994C54.2977 57.3994 58.9538 59.1629 62.5663 62.3577C66.1788 65.5526 68.4983 69.9582 69.0878 74.7446C69.2252 76.0113 69.8467 77.176 70.8225 77.9953C71.7984 78.8146 73.053 79.2252 74.3244 79.1414H74.8679C76.1629 78.9924 77.3465 78.3376 78.1608 77.3197C78.9751 76.3018 79.3541 75.0033 79.2152 73.7071C78.679 68.9032 76.9644 64.306 74.2237 60.3243C71.483 56.3426 67.8012 53.0995 63.5054 50.8833ZM49.6234 47.3264C47.8841 47.3264 46.184 46.8106 44.7379 45.8444C43.2918 44.8781 42.1647 43.5048 41.4991 41.8979C40.8336 40.2911 40.6594 38.523 40.9987 36.8172C41.338 35.1115 42.1755 33.5446 43.4053 32.3148C44.6352 31.085 46.202 30.2475 47.9078 29.9082C49.6136 29.5689 51.3817 29.743 52.9885 30.4086C54.5953 31.0741 55.9687 32.2012 56.9349 33.6473C57.9012 35.0934 58.4169 36.7936 58.4169 38.5328C58.4169 40.865 57.4905 43.1017 55.8414 44.7508C54.1922 46.3999 51.9556 47.3264 49.6234 47.3264ZM84.2049 0.0979004H15.0418C11.1112 0.0979004 7.34147 1.65936 4.56206 4.43877C1.78265 7.21818 0.221191 10.9879 0.221191 14.9185V84.0816C0.221191 88.0123 1.78265 91.7819 4.56206 94.5614C7.34147 97.3408 11.1112 98.9022 15.0418 98.9022H84.2049C88.1355 98.9022 91.9052 97.3408 94.6846 94.5614C97.4641 91.7819 99.0255 88.0123 99.0255 84.0816V14.9185C99.0255 10.9879 97.4641 7.21818 94.6846 4.43877C91.9052 1.65936 88.1355 0.0979004 84.2049 0.0979004ZM89.1451 84.0816C89.1451 85.3918 88.6246 86.6484 87.6981 87.5748C86.7717 88.5013 85.5151 89.0218 84.2049 89.0218H15.0418C13.7316 89.0218 12.4751 88.5013 11.5486 87.5748C10.6221 86.6484 10.1016 85.3918 10.1016 84.0816V14.9185C10.1016 13.6083 10.6221 12.3518 11.5486 11.4253C12.4751 10.4988 13.7316 9.97833 15.0418 9.97833H84.2049C85.5151 9.97833 86.7717 10.4988 87.6981 11.4253C88.6246 12.3518 89.1451 13.6083 89.1451 14.9185V84.0816Z" fill="#8BEB23"/>
</svg>
