<svg width="99" height="100" viewBox="0 0 99 100" fill="none" xmlns="http://www.w3.org/2000/svg">
<path d="M66.1257 51.207L62.8614 53.7752L66.722 55.3073C74.6759 58.4639 81.6207 63.7257 86.8121 70.5285C92.0025 77.3299 95.2444 85.4154 96.1905 93.9185C96.2613 94.5897 96.0646 95.2619 95.6429 95.789C95.2442 96.2873 94.675 96.618 94.0477 96.7188H93.6622H93.655L93.6477 96.7188C93.0139 96.7227 92.4012 96.4916 91.9277 96.0702C91.4543 95.6488 91.1537 95.067 91.084 94.437L91.0835 94.4331C89.9301 84.1647 85.0338 74.6813 77.3303 67.7947C69.6268 60.908 59.6561 57.101 49.3231 57.101C38.9902 57.101 29.0194 60.908 21.3159 67.7947C13.6124 74.6813 8.71614 84.1647 7.56269 94.4331L7.56208 94.4386C7.48687 95.1223 7.14311 95.7482 6.60644 96.1785C6.06978 96.6088 5.38414 96.8083 4.70039 96.7331C4.01662 96.6579 3.39075 96.3141 2.96045 95.7775C2.74738 95.5117 2.58875 95.2066 2.49359 94.8796L0.200856 95.5467L2.49359 94.8796C2.39853 94.5529 2.36869 94.2106 2.40576 93.8724C3.34689 85.3919 6.57162 77.3257 11.7362 70.5337C16.9011 63.7413 23.8124 58.4779 31.7333 55.3044L35.5744 53.7656L32.3224 51.207C27.856 47.693 24.5959 42.8742 22.9957 37.4211C21.3955 31.9681 21.5348 26.1518 23.3941 20.7815C25.2535 15.4113 28.7404 10.7541 33.3698 7.45786C37.9993 4.16164 43.541 2.39032 49.224 2.39032C54.9071 2.39032 60.4488 4.16164 65.0782 7.45786C69.7076 10.7541 73.1946 15.4113 75.0539 20.7815C76.9132 26.1518 77.0525 31.9681 75.4523 37.4211C73.8521 42.8742 70.5921 47.693 66.1257 51.207ZM36.8867 48.216C40.5385 50.6561 44.832 51.9585 49.224 51.9585C55.1136 51.9585 60.762 49.6189 64.9265 45.4543C69.0911 41.2897 71.4307 35.6414 71.4307 29.7518C71.4307 25.3597 70.1283 21.0663 67.6882 17.4144C65.2481 13.7625 61.7799 10.9163 57.7222 9.23548C53.6644 7.55471 49.1994 7.11494 44.8917 7.97179C40.584 8.82864 36.6272 10.9436 33.5215 14.0493C30.4159 17.1549 28.3009 21.1118 27.444 25.4195C26.5872 29.7272 27.0269 34.1922 28.7077 38.2499C30.3885 42.3077 33.2348 45.7759 36.8867 48.216Z" fill="#8BEB23" stroke="#8BEB23" stroke-width="4.78064"/>
</svg>
