<svg width="101" height="90" viewBox="0 0 101 90" fill="none" xmlns="http://www.w3.org/2000/svg">
<path d="M43.4523 9.42256L6.07294 71.8245C5.30227 73.1591 4.89449 74.6723 4.89017 76.2135C4.88586 77.7546 5.28516 79.2701 6.04835 80.609C6.81154 81.9479 7.91202 83.0637 9.2403 83.8453C10.5686 84.6269 12.0784 85.047 13.6194 85.064H88.3782C89.9193 85.047 91.4291 84.6269 92.7573 83.8453C94.0856 83.0637 95.1861 81.9479 95.9493 80.609C96.7125 79.2701 97.1118 77.7546 97.1075 76.2135C97.1031 74.6723 96.6954 73.1591 95.9247 71.8245L58.5453 9.42256C57.7586 8.12557 56.6508 7.05323 55.329 6.30901C54.0071 5.5648 52.5158 5.17383 50.9988 5.17383C49.4819 5.17383 47.9905 5.5648 46.6687 6.30901C45.3468 7.05323 44.2391 8.12557 43.4523 9.42256V9.42256Z" stroke="#8BEB23" stroke-width="8.8263" stroke-linecap="round" stroke-linejoin="round"/>
<path d="M49.0205 32.1067V49.7593" stroke="#8BEB23" stroke-width="8.8263" stroke-linecap="round" stroke-linejoin="round"/>
<path d="M49.0205 67.4116H49.065" stroke="#8BEB23" stroke-width="8.8263" stroke-linecap="round" stroke-linejoin="round"/>
</svg>
