<?xml version="1.0" standalone="no"?><!DOCTYPE svg PUBLIC "-//W3C//DTD SVG 1.1//EN" "http://www.w3.org/Graphics/SVG/1.1/DTD/svg11.dtd"><svg t="1671508326511" class="icon" viewBox="0 0 1024 1024" version="1.1" xmlns="http://www.w3.org/2000/svg" p-id="1956" xmlns:xlink="http://www.w3.org/1999/xlink" width="128" height="128"><path d="M512 64a448 448 0 1 0 448 448A448 448 0 0 0 512 64z m0 832a384 384 0 1 1 384-384 384 384 0 0 1-384 384z" p-id="1957"></path><path d="M763.52 496l-124.8 28.48 42.24 32A296 296 0 0 1 544 643.52V448h96v-64h-96v-32h32V288h-128v64h32v32h-96v64h96v200h-3.2a234.56 234.56 0 0 1-137.92-84.48L384 527.68l-124.8-28.48-2.24 47.04H256c0 1.6 0 4.48 1.92 6.4L256 627.2l32-24.96a320 320 0 0 0 142.08 99.84 236.48 236.48 0 0 0 50.56 9.6V768h64v-58.56a352 352 0 0 0 188.16-113.6l35.2 28.16z" p-id="1958"></path></svg>