<svg width="101" height="85" viewBox="0 0 101 85" fill="none" xmlns="http://www.w3.org/2000/svg">
<path d="M68.7687 59.1868C67.8027 59.1868 66.8764 59.6263 66.1934 60.4087C65.5104 61.191 65.1267 62.2521 65.1267 63.3585C65.1267 64.465 65.5104 65.526 66.1934 66.3084C66.8764 67.0908 67.8027 67.5303 68.7687 67.5303H83.3366C84.3026 67.5303 85.2289 67.0908 85.9119 66.3084C86.5949 65.526 86.9786 64.465 86.9786 63.3585C86.9786 62.2521 86.5949 61.191 85.9119 60.4087C85.2289 59.6263 84.3026 59.1868 83.3366 59.1868H68.7687ZM-0.429199 17.4694C-0.429199 13.0438 1.10564 8.79937 3.83766 5.66996C6.56969 2.54055 10.2751 0.782471 14.1388 0.782471H86.9786C90.8423 0.782471 94.5477 2.54055 97.2797 5.66996C100.012 8.79937 101.547 13.0438 101.547 17.4694V67.5303C101.547 71.9559 100.012 76.2003 97.2797 79.3297C94.5477 82.4591 90.8423 84.2172 86.9786 84.2172H14.1388C10.2751 84.2172 6.56969 82.4591 3.83766 79.3297C1.10564 76.2003 -0.429199 71.9559 -0.429199 67.5303V17.4694ZM94.2626 17.4694C94.2626 15.2566 93.4952 13.1344 92.1292 11.5697C90.7632 10.005 88.9105 9.12595 86.9786 9.12595H14.1388C12.2069 9.12595 10.3542 10.005 8.98822 11.5697C7.6222 13.1344 6.85479 15.2566 6.85479 17.4694V25.8129H94.2626V17.4694ZM6.85479 67.5303C6.85479 69.7431 7.6222 71.8653 8.98822 73.43C10.3542 74.9947 12.2069 75.8737 14.1388 75.8737H86.9786C88.9105 75.8737 90.7632 74.9947 92.1292 73.43C93.4952 71.8653 94.2626 69.7431 94.2626 67.5303V34.1564H6.85479V67.5303Z" fill="#8BEB23"/>
</svg>
