<svg width="121" height="120" viewBox="0 0 121 120" fill="none" xmlns="http://www.w3.org/2000/svg">
<path fill-rule="evenodd" clip-rule="evenodd" d="M56.7059 0.0674971C53.9288 0.358827 50.341 0.955573 48.3538 1.45677C33.4796 5.20721 21.0808 15.2458 14.4396 28.9153C11.1854 35.6133 9.54352 42.173 9.24468 49.6702C8.366 71.7037 21.8292 91.9257 42.6207 99.8015L45.203 100.78L51.2333 109.686C58.1534 119.905 58.241 120 60.7928 120C63.3943 120 63.3793 120.016 70.3022 109.801C73.6484 104.863 76.5535 100.764 76.7579 100.693C90.9941 95.7074 101.993 85.8214 107.905 72.697C112.59 62.296 113.688 50.0864 110.926 39.1088C107.134 24.046 96.8729 11.5261 82.8698 4.87832C78.52 2.81342 73.4284 1.26028 68.561 0.513765C66.1837 0.148957 58.6356 -0.135096 56.7059 0.0674971ZM65.2249 9.56378C70.2245 10.1131 74.5484 11.3568 79.125 13.5621C87.7163 17.702 94.3443 24.2587 98.5976 32.8256C103.609 42.9198 104.418 54.0317 100.928 64.8273C100.082 67.4441 97.6372 72.4484 96.0376 74.8377C90.7296 82.7675 83.0705 88.5884 73.8686 91.6867C72.0288 92.306 70.8466 92.8476 70.4006 93.2749C70.0285 93.6314 67.7457 96.8544 65.3277 100.437C62.9098 104.02 60.8787 106.951 60.8141 106.951C60.7496 106.951 58.7185 104.02 56.3005 100.437C53.8825 96.8544 51.592 93.6239 51.2103 93.2582C50.7443 92.8117 49.6231 92.2955 47.7975 91.6867C31.7536 86.3376 20.6401 72.6486 18.8088 55.9799C17.3371 42.5848 22.6755 28.9101 32.8826 19.9291C41.7638 12.1146 53.6806 8.2954 65.2249 9.56378ZM59.6082 27.3201C59.2676 27.3727 58.4293 27.753 57.7452 28.1655C56.0916 29.1625 55.3375 30.5175 55.4732 32.2483C55.8056 36.4906 61.7693 38.2289 64.8512 34.9818C65.6099 34.1822 66.2154 32.8146 66.2083 31.9159C66.1942 30.1163 64.4826 28.13 62.4182 27.5169C61.2156 27.1598 60.828 27.1326 59.6082 27.3201ZM58.2245 43.2438C57.6398 43.424 56.8475 43.899 56.4639 44.299L55.7669 45.0265L55.7059 58.3335C55.6364 73.5036 55.5197 72.5989 57.6806 73.6625C58.6095 74.1198 59.1854 74.2229 60.8141 74.2229C62.4428 74.2229 63.0187 74.1198 63.9476 73.6625C66.093 72.6064 65.9768 73.4773 65.9778 58.4439L65.9787 45.2472L65.2524 44.4199C64.0061 43.0006 60.7705 42.459 58.2245 43.2438Z" fill="#8BEB23"/>
</svg>
