<svg width="99" height="100" viewBox="0 0 99 100" fill="none" xmlns="http://www.w3.org/2000/svg">
<path d="M82.029 17.7189L64.0928 35.6551L82.029 17.7189ZM64.0928 64.345L82.029 82.2812L64.0928 64.345ZM35.403 35.6551L17.4667 17.7189L35.403 35.6551ZM35.403 64.345L17.4667 82.2812L35.403 64.345ZM95.4001 50.0001C95.4001 55.9952 94.2192 61.9316 91.925 67.4704C89.6308 73.0092 86.268 78.0418 82.0288 82.281C77.7896 86.5202 72.757 89.8829 67.2182 92.1772C61.6794 94.4714 55.743 95.6522 49.7479 95.6522C43.7528 95.6522 37.8163 94.4714 32.2776 92.1772C26.7388 89.8829 21.7061 86.5202 17.4669 82.281C13.2277 78.0418 9.865 73.0092 7.57077 67.4704C5.27653 61.9316 4.0957 55.9952 4.0957 50.0001C4.0957 37.8924 8.90547 26.2806 17.4669 17.7191C26.0284 9.15767 37.6402 4.3479 49.7479 4.3479C61.8556 4.3479 73.4674 9.15767 82.0288 17.7191C90.5903 26.2806 95.4001 37.8924 95.4001 50.0001ZM70.0377 50.0001C70.0377 55.3813 67.9001 60.5421 64.095 64.3472C60.2899 68.1523 55.1291 70.2899 49.7479 70.2899C44.3667 70.2899 39.2059 68.1523 35.4008 64.3472C31.5957 60.5421 29.458 55.3813 29.458 50.0001C29.458 44.6189 31.5957 39.4581 35.4008 35.653C39.2059 31.8479 44.3667 29.7102 49.7479 29.7102C55.1291 29.7102 60.2899 31.8479 64.095 35.653C67.9001 39.4581 70.0377 44.6189 70.0377 50.0001V50.0001Z" stroke="#8BEB23" stroke-width="7.02608" stroke-linecap="round" stroke-linejoin="round"/>
</svg>
