<svg width="121" height="120" viewBox="0 0 121 120" fill="none" xmlns="http://www.w3.org/2000/svg">
<path fill-rule="evenodd" clip-rule="evenodd" d="M55.9119 4.55452C49.238 5.14433 41.2658 7.37179 35.5208 10.252C13.4324 21.3264 1.037 45.9513 5.23414 70.42C7.12014 81.4133 12.3107 91.4838 20.3821 99.8074C25.4165 104.999 29.9485 108.303 36.2548 111.378C49.5322 117.853 64.5104 118.796 78.7785 114.056C105.55 105.162 121.703 77.0918 115.967 49.4289C113.79 38.9291 108.657 29.2668 101.065 21.3814C89.3624 9.22611 72.8182 3.06086 55.9119 4.55452ZM64.846 13.2097C71.3201 13.7827 76.255 15.1785 82.0763 18.0831C87.038 20.5589 90.2908 22.9082 94.2775 26.8956C108.815 41.4348 112.53 62.6111 103.793 81.1316C97.5029 94.4649 85.3003 104.132 70.818 107.256C55.3157 110.6 39.4612 106.145 28.027 95.2328C12.375 80.2958 8.63903 57.6507 18.6555 38.4293C20.9062 34.1103 23.373 30.8152 27.2992 26.8825C32.6457 21.5276 38.3829 17.9456 45.341 15.6189C52.0293 13.3822 58.1943 12.6207 64.846 13.2097ZM54.7292 33.1414C49.1976 34.532 44.8421 38.6653 43.0269 44.2464C42.3642 46.284 42.3102 46.693 42.5849 47.6093C43.6562 51.1856 47.8571 52.0458 50.2507 49.1789C50.521 48.8551 50.7463 48.5031 50.7514 48.397C50.7907 47.5531 52.0662 45.0255 52.9715 43.9966C54.7881 41.9327 55.7986 41.5403 59.3011 41.5398C61.9425 41.5395 62.4544 41.6195 63.7764 42.2399C67.2656 43.877 68.8401 46.9972 67.6997 50.0138C67.3182 51.0223 66.2052 52.3321 62.5728 56.0475C58.8751 59.8299 57.7334 61.1785 56.9487 62.6914C55.518 65.4498 55.0985 67.1377 55.0985 70.135C55.0985 72.4438 55.1725 72.8435 55.7598 73.708C57.507 76.2796 61.7074 76.0903 63.1102 73.3772C63.3369 72.939 63.6208 71.5147 63.7414 70.212C63.8632 68.8954 64.1747 67.4224 64.4428 66.8947C64.708 66.3727 66.8139 64.0695 69.1221 61.7767C71.4305 59.4839 73.7967 56.8692 74.3804 55.9662C76.4321 52.7912 77.2205 48.5589 76.4058 45.0954C75.1599 39.8007 71.1889 35.5708 65.628 33.6156C63.9461 33.0245 63.0742 32.903 59.9789 32.8292C57.3966 32.7674 55.8506 32.8593 54.7292 33.1414ZM57.0618 80.7077C55.7736 81.5161 55.1007 82.779 55.0996 84.3906C55.0958 89.412 62.386 90.1556 63.4931 85.2467C63.8141 83.823 63.3415 82.2927 62.2559 81.2403C61.4447 80.4539 61.1223 80.3319 59.6381 80.2483C58.2892 80.1724 57.7659 80.2657 57.0618 80.7077Z" fill="#8BEB23"/>
</svg>
