<svg width="97" height="100" viewBox="0 0 97 100" fill="none" xmlns="http://www.w3.org/2000/svg">
<path d="M68.4629 15.8827C69.6813 16.5745 71.1238 16.7563 72.4758 16.3885C73.8277 16.0207 74.9793 15.1331 75.6793 13.9194C76.2585 12.8973 77.1606 12.0962 78.2442 11.6419C79.3277 11.1877 80.5313 11.1059 81.6664 11.4093C82.8014 11.7128 83.8036 12.3844 84.5158 13.3189C85.2281 14.2533 85.61 15.3976 85.6018 16.5725C85.6018 17.9798 85.0428 19.3294 84.0477 20.3245C83.0526 21.3196 81.7029 21.8787 80.2956 21.8787C78.8884 21.8787 77.5387 22.4377 76.5436 23.4328C75.5485 24.4279 74.9895 25.7776 74.9895 27.1848C74.9895 28.5921 75.5485 29.9418 76.5436 30.9369C77.5387 31.932 78.8884 32.491 80.2956 32.491C83.0895 32.4892 85.8336 31.7521 88.2524 30.3539C90.6712 28.9556 92.6793 26.9453 94.0751 24.5251C95.4708 22.1049 96.205 19.36 96.2039 16.5661C96.2028 13.7723 95.4664 11.028 94.0687 8.60887C92.671 6.18978 90.6612 4.18115 88.2414 2.78481C85.8215 1.38847 83.0767 0.653605 80.2829 0.654053C77.489 0.6545 74.7445 1.39024 72.3251 2.78736C69.9057 4.18447 67.8965 6.19375 66.4996 8.61329C66.1488 9.2189 65.9212 9.88794 65.83 10.5819C65.7389 11.2758 65.7859 11.9809 65.9684 12.6566C66.1508 13.3323 66.4652 13.9652 66.8933 14.5189C67.3214 15.0726 67.8549 15.5361 68.4629 15.8827ZM91.2794 53.7156C89.8865 53.5349 88.4789 53.9137 87.3649 54.7691C86.2509 55.6245 85.5214 56.8866 85.3365 58.2789C84.223 67.2737 79.8591 75.551 73.0667 81.5517C66.2743 87.5525 57.5221 90.8627 48.4587 90.8587H18.7973L22.2463 87.4097C23.2345 86.4156 23.7893 85.0707 23.7893 83.6689C23.7893 82.2671 23.2345 80.9222 22.2463 79.9281C17.0725 74.7339 13.5515 68.1249 12.1269 60.9334C10.7022 53.742 11.4376 46.2898 14.2403 39.5154C17.0431 32.7411 21.7879 26.9478 27.8771 22.865C33.9663 18.7823 41.1275 16.5929 48.4587 16.5725C49.866 16.5725 51.2156 16.0135 52.2107 15.0184C53.2058 14.0233 53.7648 12.6736 53.7648 11.2664C53.7648 9.85908 53.2058 8.50944 52.2107 7.51435C51.2156 6.51925 49.866 5.96021 48.4587 5.96021C39.4872 5.99763 30.7077 8.56148 23.126 13.358C15.5443 18.1546 9.46709 24.9898 5.59058 33.0806C1.71407 41.1715 0.195065 50.1906 1.20759 59.1049C2.22012 68.0191 5.72323 76.4679 11.3156 83.4832L2.24205 92.3975C1.50578 93.1437 1.00702 94.0912 0.808711 95.1206C0.610398 96.1499 0.721417 97.2149 1.12776 98.1812C1.52583 99.1502 2.20182 99.9797 3.07055 100.565C3.93927 101.151 4.96186 101.466 6.00943 101.471H48.4587C60.0869 101.473 71.3161 97.2315 80.0399 89.5432C88.7638 81.8549 94.3827 71.2478 95.8427 59.7116C95.9397 59.0178 95.8984 58.3117 95.7212 57.634C95.544 56.9563 95.2343 56.3204 94.8101 55.763C94.3858 55.2056 93.8554 54.7377 93.2495 54.3863C92.6435 54.0349 91.9739 53.8069 91.2794 53.7156ZM82.312 38.1686C81.346 37.7412 80.2744 37.6119 79.2344 37.7972L78.2793 38.1155L77.3242 38.5931L76.5283 39.2829C76.051 39.7718 75.6726 40.3484 75.414 40.9809C75.1002 41.6427 74.9544 42.3717 74.9895 43.1033C74.974 43.811 75.1003 44.5146 75.3609 45.1727C75.6353 45.8095 76.0319 46.3864 76.5283 46.8707C77.0241 47.3625 77.6121 47.7515 78.2586 48.0156C78.9051 48.2797 79.5973 48.4135 80.2956 48.4095C81.7029 48.4095 83.0526 47.8504 84.0477 46.8553C85.0428 45.8602 85.6018 44.5106 85.6018 43.1033C85.6197 42.4073 85.4743 41.7167 85.1773 41.087C84.6071 39.8119 83.587 38.7918 82.312 38.2216V38.1686Z" fill="#8BEB23"/>
</svg>
