<svg width="100" height="100" viewBox="0 0 100 100" fill="none" xmlns="http://www.w3.org/2000/svg">
<path d="M50.1655 0C40.3672 0 30.789 2.90552 22.642 8.34915C14.495 13.7928 8.14525 21.53 4.39561 30.5824C0.645977 39.6349 -0.335099 49.5959 1.57645 59.2059C3.488 68.8159 8.20631 77.6432 15.1347 84.5716C22.0632 91.5001 30.8905 96.2184 40.5005 98.1299C50.1105 100.041 60.0715 99.0604 69.124 95.3108C78.1764 91.5611 85.9136 85.2113 91.3572 77.0644C96.8008 68.9174 99.7064 59.3392 99.7064 49.5409C99.7064 43.0351 98.425 36.593 95.9353 30.5824C93.4456 24.5718 89.7965 19.1105 85.1962 14.5102C80.5959 9.9099 75.1345 6.26074 69.124 3.77108C63.1134 1.28141 56.6713 0 50.1655 0ZM50.1655 89.1737C42.3268 89.1737 34.6643 86.8492 28.1467 82.4943C21.6291 78.1394 16.5493 71.9497 13.5496 64.7077C10.5499 57.4658 9.76501 49.497 11.2943 41.809C12.8235 34.121 16.5981 27.0591 22.1409 21.5163C27.6836 15.9736 34.7455 12.199 42.4335 10.6697C50.1215 9.14048 58.0903 9.92534 65.3323 12.925C72.5742 15.9248 78.764 21.0046 83.1189 27.5222C87.4738 34.0397 89.7982 41.7023 89.7982 49.5409C89.7982 60.0522 85.6226 70.1329 78.19 77.5655C70.7575 84.9981 60.6767 89.1737 50.1655 89.1737ZM50.1655 19.8164C48.8516 19.8164 47.5915 20.3383 46.6624 21.2674C45.7333 22.1965 45.2114 23.4566 45.2114 24.7705V46.6676L34.8078 52.662C33.8534 53.2028 33.1055 54.0451 32.6814 55.0567C32.2572 56.0683 32.1809 57.1921 32.4642 58.2519C32.7476 59.3116 33.3746 60.2473 34.247 60.9123C35.1194 61.5772 36.1879 61.9338 37.2848 61.9262C38.1527 61.9322 39.0068 61.7101 39.7619 61.2821L52.6425 53.851L53.0884 53.4051L53.881 52.7611C54.0747 52.5158 54.2409 52.25 54.3764 51.9684C54.5379 51.7025 54.6707 51.4202 54.7728 51.1262C54.9075 50.8112 54.9911 50.4768 55.0205 50.1354L55.1196 49.5409V24.7705C55.1196 23.4566 54.5976 22.1965 53.6685 21.2674C52.7395 20.3383 51.4794 19.8164 50.1655 19.8164Z" fill="#8BEB23"/>
</svg>
