<svg width="120" height="120" viewBox="0 0 120 120" fill="none" xmlns="http://www.w3.org/2000/svg">
<path d="M9.99951 14.9993H39.9995C45.3038 14.9993 50.3909 17.1064 54.1416 20.8571C57.8924 24.6079 59.9995 29.6949 59.9995 34.9993V104.999C59.9995 101.021 58.4192 97.2057 55.6061 94.3927C52.7931 91.5796 48.9778 89.9993 44.9995 89.9993H9.99951V14.9993Z" stroke="#8BEB23" stroke-width="9.39149" stroke-linecap="round" stroke-linejoin="round"/>
<path d="M110 14.9993H80.0005C74.6962 14.9993 69.6091 17.1064 65.8584 20.8571C62.1076 24.6079 60.0005 29.6949 60.0005 34.9993V104.999C60.0005 101.021 61.5808 97.2057 64.3939 94.3927C67.2069 91.5796 71.0222 89.9993 75.0005 89.9993H110V14.9993Z" stroke="#8BEB23" stroke-width="9.39149" stroke-linecap="round" stroke-linejoin="round"/>
</svg>
